<?xml version="1.0" encoding="UTF-8" standalone="no"?>
<svg
   xmlns:dc="http://purl.org/dc/elements/1.1/"
   xmlns:cc="http://creativecommons.org/ns#"
   xmlns:rdf="http://www.w3.org/1999/02/22-rdf-syntax-ns#"
   xmlns:svg="http://www.w3.org/2000/svg"
   xmlns="http://www.w3.org/2000/svg"
   xmlns:sodipodi="http://sodipodi.sourceforge.net/DTD/sodipodi-0.dtd"
   xmlns:inkscape="http://www.inkscape.org/namespaces/inkscape"
   width="1254pt"
   height="798pt"
   viewBox="0 0 1254 798"
   version="1.1"
   id="svg2"
   inkscape:version="0.92.4 (5da689c313, 2019-01-14)"
   sodipodi:docname="logo mg repeat.svg">
  <metadata
     id="metadata368">
    <rdf:RDF>
      <cc:Work
         rdf:about="">
        <dc:format>image/svg+xml</dc:format>
        <dc:type
           rdf:resource="http://purl.org/dc/dcmitype/StillImage" />
        <dc:title></dc:title>
      </cc:Work>
    </rdf:RDF>
  </metadata>
  <defs
     id="defs366" />
  <sodipodi:namedview
     pagecolor="#ffffff"
     bordercolor="#666666"
     borderopacity="1"
     objecttolerance="10000"
     gridtolerance="10000"
     guidetolerance="10000"
     inkscape:pageopacity="0"
     inkscape:pageshadow="2"
     inkscape:window-width="1920"
     inkscape:window-height="1001"
     id="namedview364"
     showgrid="false"
     inkscape:zoom="0.35355339"
     inkscape:cx="1381.2292"
     inkscape:cy="636.19574"
     inkscape:window-x="-9"
     inkscape:window-y="-9"
     inkscape:window-maximized="1"
     inkscape:current-layer="svg2"
     inkscape:snap-bbox="false"
     inkscape:snap-nodes="false"
     inkscape:snap-midpoints="true"
     showguides="true"
     inkscape:guide-bbox="true" />
  <g
     id="g4813"
     transform="matrix(1.2219908,0,0,1.1911559,-13.920665,508.87689)"
     style="fill:#ff0000"
     inkscape:export-filename="C:\Users\Mario\Desktop\path6-3-8-7-8.png"
     inkscape:export-xdpi="20.02"
     inkscape:export-ydpi="20.02" />
  <rect
     style="opacity:1;fill:#fff5f7;fill-opacity:1;stroke:none;stroke-width:2.56252098;stroke-miterlimit:4;stroke-dasharray:none;stroke-opacity:1"
     id="rect1035"
     width="1255.3765"
     height="798.59558"
     x="-0.22285053"
     y="-0.0074598496" />
  <path
     id="path6-3-8-7-8-3"
     style="fill:#ffebef;fill-opacity:1;stroke:none;stroke-width:0.99999994;stroke-opacity:1"
     d="m 280.42665,244.8444 c -22.60131,1.08047 -38.75947,4.58627 -57.49602,12.6524 -7.09501,3.32641 -17.9656,9.51388 -20.60284,15.59281 0.22811,0.50508 0.69346,1.51497 0.92156,2.02005 7.6181,2.30461 16.07501,-1.64063 22.60636,-4.97696 -0.0652,-2.36246 1.19652,-4.36674 2.62215,-6.12636 15.7933,-10.05587 37.12714,-14.27684 53.24585,-6.51716 14.51813,8.49192 15.51669,21.58282 10.86912,34.97238 -9.26044,30.14575 -38.32432,59.28423 -70.19171,79.35388 -17.60925,11.09007 -36.10402,19.39317 -52.74433,23.45664 -11.08234,2.70624 -21.37484,3.5623 -30.05143,1.98698 1.77579,15.79769 6.71173,49.29383 18.25182,57.79767 25.26537,4.0458 57.12306,-12.49337 85.96907,-32.6672 l -0.004,-0.005 c 19.40084,-13.53624 44.87673,-34.2855 65.77227,-57.1536 14.98307,-16.39752 27.55675,-33.90658 33.95916,-50.48878 0.0602,-0.16229 0.12446,-0.32721 0.1833,-0.48881 0.0315,-0.0829 0.0606,-0.16537 0.0917,-0.2482 15.6825,-43.46603 -15.04137,-61.47056 -42.67587,-67.39899 -6.84804,-1.21686 -13.78513,-1.77984 -20.72629,-1.76167 z m 95.10831,34.76617 c 5.02059,5.43599 11.27523,14.63035 13.25196,28.06573 3.46967,23.5826 -6.1623,59.85347 -56.98557,111.39611 l -0.0267,0.0267 -0.028,0.0255 c -59.43043,54.86 -99.79136,72.32554 -125.55816,75.96423 -7.73683,1.09255 -14.14462,0.92512 -19.34143,0.15145 0.21139,0.20697 0.41311,0.41379 0.63897,0.62116 13.22494,11.72242 30.48278,23.37671 48.39746,28.39924 0.28809,0.0336 0.58038,0.0586 0.87193,0.0853 1.23326,0.0234 3.41934,-0.0262 6.90537,-0.51297 5.52765,-0.77176 13.87256,-2.63478 25.00829,-7.01994 22.2643,-8.76749 55.68655,-27.62666 99.96563,-67.99726 31.12293,-32.89082 42.59553,-60.99859 46.35067,-80.82279 2.55857,-13.50732 1.56491,-23.08078 0.67079,-27.82134 -6.5985,-28.61444 -29.27905,-51.14669 -40.12117,-60.56108 z m -33.42966,46.2399 c -7.16364,14.01029 -17.91984,28.14571 -30.15453,41.53536 -4.88508,5.34624 -10.01535,10.56264 -15.25037,15.6055 19.07912,-2.73974 40.5089,-1.58219 61.33245,1.09723 14.54357,-19.438 22.30946,-35.90546 25.80765,-49.65378 -13.82733,-4.89369 -27.62836,-7.76295 -41.7352,-8.58431 z m -76.9914,6.12764 c -41.62893,10.29284 -89.23084,23.0182 -119.0283,49.98092 -3.10821,3.35887 -6.6478,7.22831 -6.77809,11.96127 8.22364,1.66564 18.40009,0.98274 29.59191,-1.75023 16.19439,-3.95457 34.43506,-12.12162 51.7986,-23.05694 16.39777,-10.32712 31.984,-23.13911 44.41588,-37.13502 z m 153.79317,31.81822 c -0.21496,1.54497 -0.471,3.1395 -0.78409,4.79238 -1.98547,10.4817 -6.06589,23.13453 -13.80057,37.45448 5.58228,7.01716 8.45371,14.60946 9.55043,22.89784 5.6143,-11.06619 8.67161,-21.17183 10.19322,-29.90885 0.84367,-4.84434 1.20674,-9.24049 1.28816,-13.16923 -1.15324,-7.61102 -2.55506,-15.43079 -6.44715,-22.06662 z m 5.72159,46.80759 c -5.90876,20.12416 -19.76848,45.08901 -49.8116,71.47096 -39.34482,34.55011 -68.67269,46.44432 -88.30989,49.61941 -1.75221,0.2833 -3.42279,0.49508 -5.02023,0.64916 29.14098,2.44054 67.40842,-13.22249 82.83522,-24.57422 35.26628,-25.84964 55.64515,-60.58653 60.3065,-97.16531 z M 315.0897,429.73657 c -0.82614,0.11366 -1.65404,0.21661 -2.47449,0.35896 -24.58723,2.19335 -49.38046,9.54851 -71.31438,18.30531 v 0.0814 c -17.85202,7.05864 -47.48489,22.28311 -56.78063,37.20502 -1.07692,2.27621 -1.09467,4.13537 -0.42132,5.80942 5.3298,1.18022 12.45448,1.72777 21.64278,0.43023 22.73416,-3.21041 58.10977,-17.80425 109.34804,-62.19038 z m 63.74202,12.57862 c -2.49296,2.87742 -5.12543,5.79162 -7.91985,8.74341 l -0.0395,0.042 -0.0432,0.0382 c -11.28801,10.29354 -21.87987,19.2008 -31.77873,26.91507 4.27717,1.80305 14.1647,6.65319 13.84766,12.99609 -0.0513,2.12292 -0.70861,4.17372 -1.81131,6.14802 6.82345,-5.05336 14.02731,-10.85182 21.62369,-17.52247 6.35661,-5.58197 11.95829,-11.08605 16.91148,-16.48507 -0.28491,-8.93818 -5.09273,-15.69676 -10.79019,-20.87524 z M 903.73893,321.64546 c -11.697,0.24236 -23.34842,4.40157 -32.1703,12.16406 -9.12,8.72 -14.35031,20.96875 -15.57031,33.41875 l -0.92031,0.93125 c -5.33892,-15.4288 -9.6705,-27.82041 -14.95938,-43.39062 -44.46722,-0.32586 -89.40336,-0.0468 -125.875,-0.12969 v 58.63438 c -1.32579,-0.7912 -1.75979,-2.32628 -2.47499,-3.60469 -9.23001,-18.85 -20.5,-36.58031 -30.65,-54.92031 l -27.55001,-0.0797 c -0.03,8.77 0.0194,17.53 -0.0406,26.3 -2.44,-4.26 -4.45938,-8.80031 -7.65938,-12.57031 -4.16,-5.32999 -9.85093,-9.25999 -15.91093,-12.14999 -15.15,-6.15 -33.1,-6.1697 -47.74999,1.4203 -9,4.61001 -15.74001,12.76062 -19.75001,21.94062 -0.27,-8.28999 -0.74031,-16.57092 -0.5203,-24.86092 -11.47001,-0.24 -22.94001,0.021 -34.40001,-0.13907 -6.68388,23.35043 -12.54393,46.94439 -18.70938,70.43906 l -18.29061,-70.4 -34.8,0.0797 -0.0297,98.02032 23.17031,0.0906 -0.17031,-73.66094 3.56092,15.95 13.68907,57.56094 25.57031,0.1 14.10939,-56.8 3.81093,-13.89062 -0.62031,17.01093 -0.14063,53.66875 c 7.69001,0.12 15.37094,0.0809 23.06093,0.0609 0.91,-8.3 0.23001,-16.64094 0.65001,-24.96094 3.90999,8.48 9.89031,16.20032 18.0703,20.92032 12.19,7.01 27.12,8.32093 40.7,5.26093 12.56,-2.87 24.11907,-11.13 29.73907,-22.9 0.82,-1.71 1.63093,-3.44 2.46093,-5.15 0.0972,1.47248 0.1591,2.94532 0.20782,4.41875 v 22.5375 h 24.55156 v -59.63594 c 0.25806,0.64614 0.51579,1.29572 0.79062,1.94844 9.63,19.68 21.71,38.06032 32.15,57.32032 l 3.175,0.025 v 0.005 h 0.55 l 23.91407,0.19063 c 2.1e-4,-0.0635 -2.2e-4,-0.12709 0,-0.19063 h 0.0891 v -77.96875 c 7.48027,-0.0893 14.97075,-0.10009 22.46094,-0.0203 l 0.0203,78.20937 42,-0.0891 5.52969,-17.95 31.44062,0.0891 1.12031,0.84062 5.47969,16.97032 c 9.2,0.24 18.42907,0.19882 27.63907,0.0188 -0.92,-2.49999 -1.82876,-5.00906 -2.46876,-7.58906 12.79,10.92 32.18942,13.56906 47.30942,6.13907 4.89,-2.33001 8.44022,-6.48 12.27032,-10.15001 0.9399,3.83 1.2493,7.79033 1.9593,11.67032 11.38,-0.02 22.7904,0.27093 34.1703,-0.13907 l 5.9594,-17.9203 31.77039,0.009 2.7609,7.41093 3.6594,10.70937 c 9.06,-0.11 18.1203,0.12031 27.1703,-0.12969 -0.79,-2.52999 -1.7,-5.01 -2.6,-7.5 3.58,2.75999 7.2003,5.61939 11.5203,7.15938 9.58,3.61 20.1401,3.72969 30.2001,2.52968 9.73,-1.08 19.8687,-4.60907 26.2687,-12.38907 5.56,-6.68 6.89,-15.94062 5.45,-24.2906 -1.64,-8.58001 -8.2894,-15.6497 -16.3094,-18.7797 -10.68,-4.28 -21.85,-7.19 -32.6,-11.25 -3.49,-1.32999 -7.3907,-4.02 -7.3907,-8.15 -0.32,-5.02 4.8804,-8.42 9.4204,-8.65 4.63,-0.2 9.6906,-0.74031 13.8406,1.82969 4.16,2.3 5.6097,7.01062 6.7797,11.29063 7.87,-0.17001 15.7503,3e-4 23.6203,-0.0797 -0.08,-8.25999 -2.7806,-16.82125 -9.0406,-22.48125 -6.05,-6.26 -14.7597,-8.77875 -23.1297,-10.01875 -8.1,-0.69 -16.3607,-0.14062 -24.1407,2.30938 -7.63,2.46 -14.9493,7.28969 -18.4593,14.72969 -3.36,5.81 -3.5807,12.78094 -2.6407,19.26093 1.61,8.28999 7.81,14.97 15.1,18.84999 11.07,5.88 23.4914,8.30875 35.2314,12.46875 2.32,0.65001 3.9496,2.49 5.4296,4.3 0.02,2.16 0.04,4.34033 0.07,6.52032 -2.26,3.26 -5.781,5.40032 -9.711,5.92031 -6.2599,0.65001 -13.32,0.95062 -18.6,-3.05937 -4.27,-3.11001 -5.34,-8.65032 -5.8,-13.57032 -7.98,0.04 -15.9597,-0.0403 -23.9297,0.0797 -7.9999,-21.61001 -15.2697,-43.47969 -23.1297,-65.12969 l -27.87029,0.0391 c -8.91,24.82999 -17.7594,49.68124 -26.7594,74.48125 -0.47,-9.88001 -0.1312,-29.66094 -0.1312,-29.66094 l -44.3499,-0.22966 c 0,0 -0.18907,12.80061 0.2109,19.19061 7.07003,-0.08 14.14973,-0.09 21.22973,0 -1.31003,5.39001 -4.23038,10.5897 -9.22035,13.32969 -8.67998,4.87 -20.73938,3.80031 -27.90938,-3.32969 -5.63002,-5.97 -7.89064,-14.33092 -8.09065,-22.36093 -0.5,-9.62 1.58062,-19.89999 8.09065,-27.3 6.33998,-6.99999 17.2197,-8.69969 25.6797,-4.82969 4.34003,2.25 7.35998,6.2897 9.20003,10.7297 8.11997,0.02 16.23937,0.0306 24.35927,-0.009 -1.5399,-9.45 -6.3999,-18.58001 -14.1,-24.40001 -8.07992,-6.37 -18.62927,-8.78062 -28.7593,-8.64061 -0.7794,-0.0187 -1.55925,-0.0191 -2.3391,-0.003 z m -296.19997,21.22031 c 6.67652,-0.0239 13.53124,2.77031 17.46874,8.28282 5.28,7.13 6.1197,16.41062 5.8797,24.99062 -0.36,7.83 -1.79938,16.31938 -7.50938,22.15938 -6.87,7.1 -18.51969,7.88 -27.07969,3.55 -6.59,-3.45 -10.07031,-10.72032 -11.27031,-17.77032 -1.54,-9.98 -1.48031,-20.71 3.02969,-29.95 3.11,-6.33 9.61062,-10.58968 16.64062,-11.07968 0.93751,-0.11876 1.88684,-0.1794 2.84063,-0.18282 z m 178.98905,1.72344 18.15939,0.0203 -17.92969,50.46875 -0.2297,-50.48906 z m 203.0797,6.52031 c 3.5599,10.88 7.2403,21.72938 10.52019,32.70938 -6.71989,0.19 -13.43929,0.13062 -20.15929,0.0406 2.42,-11.12 6.7991,-21.73 9.6391,-32.75 z m -164.42032,0.78907 c 3.66556,10.50644 6.82152,21.15774 9.88124,31.85 l -20.03123,0.14062 z m 281.70791,96.42815 c -5.259,0.0932 -10.5758,1.28059 -14.9325,4.22147 -5.377,3.85458 -7.8667,10.49396 -7.8788,16.83992 v 22.37519 h 12.0852 v -24.44251 c 0,-3.66032 1.1451,-7.76037 13.0158,-7.44058 v -11.52775 c -0.746,-0.0294 -1.5385,-0.0389 -2.2897,-0.0257 z m -84.2769,-12.95985 c -0.024,16.12343 -0.06,32.23584 0,48.34751 -0.085,3.2905 1.5557,8.01444 5.1125,7.96183 h 13.4358 c 0.012,-2.6559 -0.012,-5.2874 0,-7.9433 h -6.0704 c -0.9857,-0.0347 -0.9918,-0.181 -0.9896,-1.72036 v -24.55236 c 5.3663,-0.49284 6.6319,-2.84724 7.2832,-8.45511 l -7.2832,-0.20013 v -6.91261 c 0.2134,-6.5588 -5.9443,-6.28053 -11.4883,-6.52547 z m -24.33199,12.68438 c -6.4157,-0.14999 -12.9592,2.24739 -16.6464,8.19148 -2.2886,4.38206 -0.6017,11.44504 3.5085,14.5637 5.9943,4.60864 22.34239,3.08761 22.34239,8.91872 -0.088,5.41771 -16.70319,7.30626 -16.44609,-1.73741 h -10.5277 c 0.5956,5.13328 1.1944,9.6237 6.5305,11.71799 7.1928,2.8341 15.68069,2.56058 22.87349,-0.19386 7.7066,-2.98208 10.2265,-13.16405 4.2948,-19.03714 -6.5506,-4.83735 -15.03659,-5.00122 -22.05419,-8.82557 -3.6887,-6.80814 13.63369,-8.54693 15.32009,0.18141 l 8.8158,0.0801 c 0.4723,-7.98002 -8.6344,-13.6401 -18.01119,-13.85934 z m -42.2854,0.27546 c -5.6848,0.0207 -11.3155,1.96138 -15.0171,5.97491 -4.0387,4.82034 -5.4499,11.13939 -5.2087,17.09329 0.6268,6.37211 2.6179,13.70133 9.1764,17.10202 10.7538,6.57019 27.9566,2.86174 30.9826,-9.22212 h -10.1654 c -1.7944,3.22105 -5.3825,3.67062 -9.4852,3.33437 -5.5969,-0.45871 -8.5597,-5.37642 -8.7888,-9.94365 9.7412,-0.12106 19.4962,0.0438 29.2495,0 0.2532,-5.87687 -0.2423,-12.19805 -3.9314,-17.2275 -3.8556,-4.68896 -10.3692,-7.13475 -16.8119,-7.11132 z m 0.2177,8.89437 c 6.1014,0.0778 8.7563,4.43443 8.7563,8.65907 h -17.3714 c 0,-4.54242 3.4107,-8.53628 8.6151,-8.65907 z m -251.64933,-9.26872 a 21.327628,22.070366 0 0 0 -21.32844,22.0693 21.327628,22.070366 0 0 0 21.32844,22.07115 21.327628,22.070366 0 0 0 21.32643,-22.07115 21.327628,22.070366 0 0 0 -21.32643,-22.0693 z m 0,8.25232 a 10.406234,13.817559 0 0 1 10.40572,13.81698 10.406234,13.817559 0 0 1 -10.40572,13.81884 10.406234,13.817559 0 0 1 -10.40571,-13.81884 10.406234,13.817559 0 0 1 10.40571,-13.81698 z m -132.72341,-7.87796 c -5.25901,0.0932 -10.57574,1.28059 -14.93248,4.22147 -5.37697,3.85458 -7.8667,10.49396 -7.87876,16.83992 v 22.37519 h 12.08519 v -24.44251 c 0,-3.66032 1.14508,-7.76037 13.01572,-7.44058 v -11.52775 c -0.74595,-0.0294 -1.53841,-0.0389 -2.28969,-0.0257 z m 264.03894,-0.033 -0.083,43.49256 h 11.4758 l 0.0244,-35.25532 c 0.062,-8.05564 -1.62276,-8.14076 -11.41739,-8.23724 z m -235.58502,0 c -0.0241,14.50168 -0.0848,28.99087 -0.0848,43.49256 3.82176,0.0235 7.64389,0.0235 11.47768,0 0.0122,-11.75177 -7.5e-4,-23.50354 0.0227,-35.25532 0.062,-8.05564 -1.6209,-8.14076 -11.41552,-8.23724 z m -66.12455,5.65668 v 24.61947 c 0,5.94885 -15.01372,5.92456 -15.01372,0 l -0.48223,-30.18383 h -11.70652 v 27.76927 c 0.3858,3.82423 1.24236,8.02487 4.13579,10.89016 8.53565,6.92062 22.21414,7.29002 30.45268,0.24191 3.08669,-2.64069 4.11713,-7.11142 3.94835,-11.13207 -0.0241,-9.28913 0.0364,-18.57226 0,-27.86137 -5.52366,0.0344 -11.33435,0.15932 -11.33435,5.65646 z m 212.33348,-5.89914 c -6.62413,-0.15032 -13.38022,2.25226 -17.1873,8.20922 -2.36298,4.39154 -0.62115,11.46982 3.62255,14.59524 6.18906,4.61863 23.06827,3.0943 23.06827,8.93804 -0.0906,5.42945 -17.2458,7.32209 -16.98048,-1.74117 H 728.1622 c 0.61487,5.14439 1.23315,9.64454 6.74274,11.74336 7.42649,2.84025 16.19006,2.56614 23.61654,-0.19427 7.95695,-2.98854 10.55874,-13.19256 4.4343,-19.07837 -6.76339,-4.84783 -15.52504,-5.01207 -22.77069,-8.84469 -3.80847,-6.82289 14.07663,-8.56544 15.8178,0.18179 l 9.10227,0.0803 c 0.48761,-7.9973 -8.9149,-13.66964 -18.59634,-13.88936 z m 175.16982,38.1296 v -24.34213 c -1.56728,-6.32245 -11.9997,-6.99304 -15.01373,-1.39919 -1.01272,10.41206 -0.024,20.95379 -0.48225,31.40111 h -11.70652 v -28.2391 c 0.3858,-3.88984 1.24237,-8.16895 4.1358,-11.08339 8.53567,-7.03931 22.21417,-7.41505 30.45267,-0.24605 3.0867,2.68598 4.1171,7.22696 3.9484,11.31658 -0.024,9.44843 0.037,18.89722 0,28.34564 -5.52367,-0.035 -11.33437,-0.16204 -11.33437,-5.75347 z m -258.8084,-38.11325 c -4.68006,-0.11375 -9.40658,1.07505 -13.37843,3.51997 -7.43613,-3.88887 -16.60884,-4.91322 -24.29284,-1.05885 -5.59481,2.0825 -8.3089,8.06539 -8.50956,13.57656 -0.0943,9.22744 0.0235,18.46603 0,27.70501 3.77709,0 7.60759,7.5e-4 11.38467,-0.045 0.0827,-9.19293 -0.35408,-18.39773 0,-27.57918 0,-9.71549 15.30295,-9.26669 15.30295,0.72039 -0.0122,8.43358 -0.16534,18.47017 0,26.90375 3.67085,0 7.37122,7.1e-4 11.05389,-0.0107 0.059,-8.45658 -0.024,-18.48524 0,-26.93032 0.16388,-10.13697 16.1386,-9.11233 16.1386,-0.87453 v 19.86729 c 0,7.0757 0.32917,7.83328 10.10281,7.83328 v -29.46634 c -0.3777,-5.00491 -1.40858,-6.51044 -5.64598,-9.87007 -3.78299,-2.76134 -7.47583,-4.17758 -12.15587,-4.2912 z m 398.83506,-0.34372 c -7.7107,0.12392 -17.5147,3.74604 -17.7589,11.69199 l 10.6168,-0.007 c 2.9656,-4.3591 15.975,-6.14224 15.3484,3.33777 -7.6555,3.96036 -18.466,1.2257 -24.7833,7.93596 -2.4836,3.78407 -3.2057,8.88311 -1.2889,13.07852 1.8929,5.86413 8.7759,8.26191 14.5627,8.10915 7.4627,0.18804 16.2518,-1.70447 20.2182,-8.52048 0.6699,-1.50407 1.3761,-3.11307 1.3761,-4.71231 V 461.2334 c 0,-11.37333 -8.9152,-13.50887 -18.2911,-13.50887 z m 8.1014,22.4278 c 0,4.42719 0.048,10.27995 -3.6774,12.90059 -3.3154,2.08006 -8.8122,3.17296 -11.4885,-0.41132 -1.6638,-2.39737 -0.8671,-7.75251 2.0143,-8.95117 4.2316,-1.64526 8.7754,-2.29241 13.1516,-3.5381 z M 870.10672,448.54903 c -5.68477,0.0208 -11.31554,1.96614 -15.01713,5.98939 -4.03875,4.83204 -5.44985,11.16642 -5.20873,17.13476 0.6269,6.38756 2.61794,13.73457 9.17639,17.1435 10.75394,6.58613 27.95667,2.8687 30.98271,-9.24449 h -10.16545 c -1.79434,3.22887 -5.38251,3.67953 -9.48521,3.34245 -5.59687,-0.45982 -8.55972,-5.38945 -8.78878,-9.96775 9.74124,-0.12136 19.4962,0.0439 29.24952,0 0.2532,-5.89112 -0.24225,-12.22764 -3.9314,-17.2693 -3.85564,-4.70034 -10.36918,-7.15204 -16.81192,-7.12856 z m 0.21767,8.91594 c 6.1015,0.0779 8.75633,4.44519 8.75633,8.68008 h -17.37136 c 0,-4.55345 3.4106,-8.55699 8.61503,-8.68008 z M 578.37504,435.36689 c -0.0241,16.12343 -0.0602,32.23584 0,48.34751 -0.0844,3.2905 1.55571,8.01444 5.11251,7.96183 h 13.43585 c 0.0122,-2.6559 -0.0122,-5.2874 0,-7.9433 h -6.07045 c -0.98571,-0.0347 -0.99176,-0.181 -0.98958,-1.72036 v -24.55236 c 5.60886,0 7.28325,-2.98859 7.28325,-8.45511 l -7.28325,-0.20013 v -6.91261 c 0.21344,-6.5588 -5.94433,-6.28053 -11.48833,-6.52547 z m 261.95551,-0.004 -4.46826,0.0147 -0.0131,9.41428 11.52665,-0.0349 c -0.25318,-2.9732 0.3255,-6.75838 -2.7126,-8.59164 -1.36836,-0.6346 -2.83917,-0.78629 -4.3326,-0.80244 z m -235.58689,0 c -1.60668,0.01 -3.00661,0.068 -4.46826,0.0148 -0.0241,3.13772 -7.5e-4,6.27654 -0.0132,9.41427 3.84585,0.0119 7.68078,0.0238 11.52663,-0.0349 -0.25317,-2.9732 0.32552,-6.75838 -2.71259,-8.59164 -1.36835,-0.6346 -2.83918,-0.7863 -4.33261,-0.80244 z m 189.7348,1.50118 c -0.96369,0.006 -1.91803,0.0336 -2.81325,0.0141 -0.0472,12.29354 -0.0126,24.57567 -0.0242,36.86922 0.10607,4.6101 1.44976,9.65585 5.19556,12.84057 8.24556,5.86842 20.94435,7.02693 29.27236,0.73542 7.35034,-7.08216 7.85486,-18.38508 4.8747,-27.42706 -2.24987,-6.78149 -9.04683,-12.49364 -16.86833,-11.88119 -4.5586,-0.0222 -8.26796,2.66007 -11.49552,5.37714 -0.0589,-4.63236 0.55528,-9.35434 -0.48131,-13.91986 -1.78457,-2.42198 -4.76885,-2.62454 -7.65995,-2.60834 z m 17.11642,20.0765 c 4.31894,-0.19151 8.35157,3.14301 9.08339,7.18656 0.76566,4.49872 1.02387,9.4093 -0.91974,13.68532 -2.00249,4.36509 -8.39938,6.24786 -12.51038,3.38605 -4.05211,-2.65024 -4.35602,-7.80544 -4.54448,-12.02579 0,-4.64348 1.67167,-10.54625 7.03126,-11.92704 0.61992,-0.17956 1.24297,-0.27771 1.85995,-0.3051 z M 477.61144,433.04468 c -4.20755,0.0897 -8.39625,0.95888 -12.218,2.62763 -10.31992,4.16012 -11.9599,19.99012 -3.46045,26.58287 8.86116,5.40581 20.73669,4.08851 28.83829,10.97506 1.59381,1.48274 0.31309,5.72384 -2.25484,7.33383 -7.26975,4.32464 -19.00442,2.60975 -20.23413,-7.0267 -3.88202,-0.10578 -7.77762,-0.11721 -11.6717,-0.0349 1.04888,5.24128 1.22225,10.70427 6.03257,13.9125 8.17395,5.67612 19.37547,5.55859 28.61035,2.7029 10.77805,-3.25524 14.82735,-17.96882 7.61787,-26.23031 -8.00516,-6.88654 -18.38824,-5.10699 -27.44227,-9.96045 -3.26718,-2.09183 -2.59491,-7.47695 0.23826,-9.463 4.11108,-2.6324 8.48182,-2.35148 12.84609,-0.60048 3.29128,1.35146 5.75026,2.81587 6.53849,6.74443 l 9.4112,0.13036 c -0.31345,-6.54573 -4.05044,-13.18658 -10.52449,-15.6427 -3.89409,-1.45134 -8.11971,-2.14067 -12.32724,-2.05106 z"
     inkscape:connector-curvature="0" />
  <path
     style="fill:#ffebef;fill-opacity:1;stroke:none;stroke-width:0.99999994;stroke-opacity:1"
     d="m 2.407929,-0.05674901 c -0.8301,0.5337 -1.69589988,1.00778 -2.59269992,1.41503001 v 22.29344 C 1.082429,23.445401 2.344029,23.215151 3.591529,22.933981 16.15153,20.063951 27.71073,11.804051 33.33083,0.03408099 c 0.014,-0.0302 0.03,-0.0606 0.044,-0.0908 z m 33.591901,0 V 21.839731 H 60.552029 V -0.05674901 Z m 45.1947,0 C 85.37893,7.073051 89.55493,14.208781 93.49193,21.472081 l 3.1758,0.0263 v 0.004 h 0.5493 l 23.9136,0.19042 c 1e-4,-0.0635 -3e-4,-0.1269 0,-0.19042 h 0.089 V -0.05719901 Z m 62.5005,0 0.01,21.77932001 42,-0.0894 5.5298,-17.9487 31.4414,0.0879 1.1191,0.84083 5.48,16.97018 c 9.2001,0.24 18.4287,0.19912 27.6387,0.019 -0.9199,-2.49998 -1.8282,-5.00933 -2.4683,-7.58933 12.7901,10.92 32.1901,13.56915 47.3101,6.13913 4.89,-2.33003 8.4394,-6.47985 12.2695,-10.14991 0.9399,3.83003 1.25,7.79041 1.96,11.67045 11.38,-0.02 22.7905,0.27083 34.1704,-0.1392 l 5.959,-17.91944 31.771,0.009 2.7597,7.4106 3.6593,10.70948 c 9.0599,-0.11002 18.1213,0.11963 27.1713,-0.13035 -0.79,-2.52997 -1.7001,-5.01 -2.6001,-7.5 3.58,2.76 7.1995,5.62013 11.5195,7.16018 9.5801,3.60997 20.1407,3.72975 30.2007,2.52975 9.7301,-1.08 19.8692,-4.60965 26.2691,-12.38963 2.7689,-3.3267 4.487,-7.29435 5.3379,-11.46975001 h -24.6065 c -2.262,2.88105001 -5.5596,4.76670001 -9.2124,5.25000001 -6.2598,0.65002 -13.3191,0.94995 -18.5991,-3.06007 -0.8728,-0.63563 -1.6063,-1.37731001 -2.2339,-2.18993001 h -136.3517 c -0.378,0.25358 -0.764,0.4983 -1.169,0.72068 -7.478,4.19572001 -17.4622,3.97807001 -24.6694,-0.72068 z m 79.0591,34.29345001 -4.4677,0.0146 -0.013,9.41459 11.5269,-0.0352 c -0.2532,-2.97315 0.3252,-6.75802 -2.7129,-8.59132 -1.3683,-0.63458 -2.8397,-0.78653 -4.3331,-0.80273 z m 182.2881,0.004 c -0.024,16.12343 -0.06,32.23549 0,48.34716 -0.085,3.2905 1.5555,8.01403 5.1123,7.96142 h 13.437 c 0.012,-2.6559 -0.012,-5.28648 0,-7.94238 h -6.0718 c -0.9855,-0.0347 -0.991,-0.18184 -0.9887,-1.7212 v -24.55224 c 5.3662,-0.49284 6.6319,-2.84723 7.2832,-8.45506 l -7.2832,-0.19927 v -6.9126 c 0.2134,-6.55875 -5.9448,-6.28087 -11.4888,-6.52583 z m -228.1391,1.49708 c -0.9638,0.006 -1.9188,0.0341 -2.814,0.0146 -0.047,12.29354 -0.013,24.5751 -0.023,36.86865 0.1059,4.6101 1.45,9.6561 5.1958,12.84082 8.2455,5.86842 20.9439,7.02686 29.2719,0.73535 7.3504,-7.08216 7.8552,-18.38577 4.875,-27.42774 -2.2499,-6.78146 -9.0476,-12.49233 -16.8691,-11.87988 -4.5586,-0.0222 -8.267,2.6589 -11.4947,5.37599 -0.059,-4.63237 0.5547,-9.35347 -0.4818,-13.91894 -1.7847,-2.42198 -4.7686,-2.62508 -7.6597,-2.60888 z m 119.4712,10.20263 c -5.5164,0.0777 -11.0705,1.93245 -15.3384,5.45212 -2.8934,2.91443 -3.7495,7.19318 -4.1353,11.08302 v 28.23926 h 11.7056 c 0.4582,-10.44732 -0.5294,-20.98979 0.4834,-31.40186 3.014,-5.59385 13.446,-4.9235 15.0132,1.39893 v 24.34277 c 0,5.59143 5.8112,5.71891 11.335,5.75391 0.037,-9.44842 -0.024,-18.89776 0,-28.34619 0.1686,-4.08963 -0.8626,-8.62994 -3.9493,-11.31591 -4.1193,-3.58448 -9.5978,-5.28375 -15.1142,-5.20605 z m 147.7558,0.65625 v 0.001 c -7.7107,0.12398 -17.5156,3.74497 -17.7598,11.69095 l 10.6173,-0.007 c 2.9655,-4.35912 15.9753,-6.14307 15.3486,3.33692 -7.6554,3.96036 -18.4665,1.22627 -24.7837,7.93652 -2.4837,3.78408 -3.2059,8.88271 -1.2891,13.07812 1.8929,5.86415 8.7767,8.26214 14.5635,8.10938 7.4627,0.18804 16.2514,-1.705 20.2177,-8.521 0.6699,-1.50408 1.3755,-3.11316 1.3755,-4.7124 v -17.40381 c 0,-11.3733 -8.9141,-13.50877 -18.29,-13.50877 z m -357.1362,0.22995 a 21.327628,22.070365 0 0 0 -21.328101,22.06935 21.327628,22.070365 0 0 0 21.328101,22.0708 21.327628,22.070365 0 0 0 21.3266,-22.0708 21.327628,22.070365 0 0 0 -21.3266,-22.06935 z m 41.9384,0.0982 c -6.624,-0.1503 -13.38,2.25203 -17.187,8.20898 -2.363,4.39152 -0.6211,11.47028 3.6226,14.59569 6.1891,4.61864 23.0684,3.09475 23.0684,8.93848 -0.091,5.42946 -17.2459,7.32155 -16.9805,-1.74169 h -10.8691 c 0.6147,5.14437 1.233,9.64482 6.7426,11.74365 7.4265,2.84025 16.1897,2.56558 23.6162,-0.19482 7.957,-2.98855 10.5586,-13.19232 4.4341,-19.07813 -6.7633,-4.84784 -15.5253,-5.01211 -22.771,-8.84473 -3.8084,-6.8229 14.0777,-8.56561 15.8189,0.18164 l 9.1011,0.0806 c 0.4876,-7.99734 -8.9147,-13.66997 -18.5963,-13.88964 z m 251.7789,0 c -6.4158,-0.15 -12.9593,2.2473 -16.6465,8.19139 -2.2887,4.38205 -0.6018,11.44481 3.5083,14.56348 5.9943,4.60863 22.3418,3.08834 22.3418,8.91944 -0.088,5.41771 -16.703,7.30636 -16.4458,-1.73731 h -10.5279 c 0.5957,5.13328 1.1942,9.623 6.5303,11.71729 7.1928,2.8341 15.6807,2.56108 22.8735,-0.19337 7.7067,-2.98207 10.2266,-13.16401 4.295,-19.03711 -6.5507,-4.83735 -15.0371,-5.00132 -22.0547,-8.82568 -3.6886,-6.80815 13.6343,-8.54673 15.3208,0.18164 l 8.8154,0.0806 c 0.4723,-7.98004 -8.6334,-13.64111 -18.0102,-13.86034 z m -335.417,0.0161 c -4.6801,-0.11377 -9.4067,1.07506 -13.3784,3.51998 -7.4363,-3.88882 -16.6089,-4.9134 -24.293001,-1.05907 -4.1115,1.53045 -6.66189998,5.16914 -7.80759992,9.17726 v 32.10498 c 3.54999992,-8e-5 7.13889992,-0.002 10.68310092,-0.0454 0.083,-9.19293 -0.354,-18.39716 0,-27.57861 0,-9.71548 15.3032,-9.26637 15.3032,0.72069 -0.012,8.43359 -0.1654,18.46974 0,26.90333 3.6708,0 7.371,10e-4 11.0537,-0.0103 0.059,-8.45658 -0.024,-18.48607 0,-26.93115 0.1639,-10.13693 16.138199,-9.11228 16.138199,-0.87451 v 19.86767 c 0,7.0757 0.3293,7.83398 10.103,7.83398 v -29.46679 c -0.3777,-5.0049 -1.4081,-6.51051 -5.6455,-9.87013 -3.783,-2.76128 -7.4765,-4.1784 -12.156699,-4.29196 z m 173.0141,0.22703 -0.082,43.49268 h 11.4756 l 0.022,-35.25587 c 0.062,-8.05516 -1.6224,-8.14036 -11.4156,-8.23681 z m 120.1173,0.0322 c -5.6849,0.0207 -11.316,1.96155 -15.0177,5.9751 -4.0386,4.82032 -5.4501,11.13934 -5.2089,17.09324 0.6267,6.37211 2.6187,13.70136 9.1772,17.10205 10.7538,6.57019 27.9555,2.86121 30.9814,-9.22266 h -10.1645 c -1.7945,3.22106 -5.3821,3.67169 -9.4849,3.33545 -5.5968,-0.45872 -8.5599,-5.37614 -8.789,-9.94335 9.7412,-0.12108 19.4967,0.0438 29.25,0 0.2532,-5.87688 -0.2425,-12.19858 -3.9316,-17.22803 -3.8556,-4.689 -10.3694,-7.13527 -16.812,-7.1118 z m 150.8935,0 c -5.259,0.0932 -10.576,1.28078 -14.9326,4.22167 -5.3769,3.85457 -7.8659,10.49387 -7.878,16.83983 v 22.37549 h 12.085 v -24.44239 c 0,-3.66031 1.1444,-7.7612 13.0151,-7.4414 v -11.52687 c -0.746,-0.0294 -1.5383,-0.0395 -2.2895,-0.0263 z m -236.7876,0.2226 c -5.6849,0.0208 -11.316,1.9665 -15.0176,5.9898 -4.0389,4.83203 -5.4501,11.16592 -5.209,17.13426 0.627,6.38756 2.6173,13.73413 9.1758,17.14307 10.7539,6.58611 27.9568,2.86856 30.9829,-9.24463 h -10.1645 c -1.7943,3.22887 -5.3822,3.67985 -9.4849,3.34277 -5.5969,-0.45982 -8.56,-5.38849 -8.789,-9.96679 9.7411,-0.12138 19.4952,0.0439 29.2485,0 0.2532,-5.89113 -0.241,-12.22887 -3.9302,-17.27048 -3.8556,-4.7004 -10.3694,-7.1514 -16.812,-7.128 z m -165.5376,7.65531 a 10.406234,13.817559 0 0 1 10.4048,13.81787 10.406234,13.817559 0 0 1 -10.4048,13.81787 10.406234,13.817559 0 0 1 -10.4062,-13.81787 10.406234,13.817559 0 0 1 10.4062,-13.81787 z m 107.0244,0.73682 c 4.3189,-0.19152 8.3517,3.14297 9.0835,7.18652 0.7656,4.49872 1.0252,9.40854 -0.9185,13.68456 -2.0025,4.3651 -8.4001,6.24854 -12.5112,3.38673 -4.0521,-2.65024 -4.3555,-7.80601 -4.5439,-12.02637 0,-4.64347 1.6716,-10.54598 7.0312,-11.92676 0.6199,-0.17957 1.2419,-0.2773 1.8589,-0.30468 z m 144.624,0.27978 c 6.1014,0.0778 8.7569,4.43404 8.7569,8.65869 h -17.3716 c 0,-4.54242 3.4103,-8.53589 8.6147,-8.65869 z m -85.894,0.24463 c 6.1015,0.0779 8.7568,4.4443 8.7568,8.6792 h -17.3716 c 0,-4.55345 3.4104,-8.55611 8.6148,-8.6792 z m 199.4824,12.68555 c 0,4.42719 0.049,10.28022 -3.6768,12.90087 -3.3154,2.08005 -8.8124,3.17266 -11.4887,-0.41162 -1.6638,-2.39736 -0.8672,-7.75153 2.0141,-8.95019 4.2317,-1.64526 8.7751,-2.29337 13.1514,-3.53906 z"
     id="path6-3-8-7-8-3-0"
     inkscape:connector-curvature="0" />
  <path
     style="fill:#ffebef;fill-opacity:1;stroke:none;stroke-width:0.99999994;stroke-opacity:1"
     d="m 777.29591,-0.05711901 c 2.06887,16.77915301 7.08487,46.42267301 17.84475,54.35152301 25.2654,4.04584 57.12276,-12.49365 85.96877,-32.66745 v -0.003 c 8.555,-5.96895 18.2912,-13.34393 28.2949,-21.68115301 z m 208.75342,0 C 980.98343,5.837584 975.35033,11.956534 969.08503,18.310534 l -0.026,0.0264 -0.028,0.0249 c -59.4304,54.85999 -99.79234,72.32517 -125.55911,75.963861 -7.73693,1.09255 -14.1435,0.92601 -19.34032,0.15234 0.21142,0.20697 0.4128,0.41372 0.6387,0.6211 13.22489,11.722425 30.48224,23.376395 48.39698,28.398925 0.28806,0.0336 0.57996,0.0583 0.87156,0.085 1.23319,0.0234 3.41929,-0.0259 6.90529,-0.51269 5.5277,-0.77176 13.8736,-2.63438 25.0093,-7.01954 22.2642,-8.76748 55.6862,-27.627446 99.96527,-67.998036 16.6375,-17.58255 27.6558,-33.79582 34.8852,-48.10987301 z m 58.31107,0 c -0.8624,1.75207001 -1.7784,3.53175301 -2.7539,5.33790301 5.5823,7.01715 8.4525,14.60857 9.5493,22.89697 5.2628,-10.3734 8.2611,-19.8858 9.8715,-28.23487301 z m 48.6372,0 -0.01,22.04295301 23.1694,0.0908 -0.051,-22.13377301 z m 35.0156,0 5.228,21.98437301 25.5703,0.0996 5.4859,-22.08397301 z m 48.0146,0 -0.057,22.07227301 c 7.6901,0.12 15.3711,0.0815 23.0611,0.0615 0.807,-7.36035 0.367,-14.7522 0.5493,-22.13377301 z m 25.0562,0 c 3.885,7.34992301 9.4081,13.90447301 16.6684,18.09375301 11.2116,6.4473 24.7383,8.06302 37.4033,5.90182 V 1.491181 c -6.6462,3.225523 -15.0161,2.911653 -21.5742,-0.40575 -0.6524,-0.34155005 -1.2651,-0.73005005 -1.8574,-1.14255001 z M 1061.9121,9.8408537 c -5.9088,20.1241503 -19.7689,45.0892203 -49.812,71.4711603 -39.34487,34.550126 -68.67237,46.445046 -88.30957,49.620126 -1.7522,0.28329 -3.4226,0.49485 -5.02,0.64893 29.141,2.44053 67.4086,-13.2225 82.83547,-24.57423 35.2662,-25.849636 55.6447,-60.587206 60.3061,-97.1659863 z M 952.37263,28.974634 c -0.8261,0.11362 -1.6536,0.21652 -2.4742,0.35887 -24.5872,2.19338 -49.3805,9.54788 -71.3144,18.30465 v 0.0821 c -17.85212,7.05863 -47.48463,22.28221 -56.78027,37.20412 -1.07693,2.27621 -1.09523,4.13552 -0.42188,5.80957 5.3298,1.18022 12.45472,1.72821 21.64304,0.43066 22.73409,-3.2104 58.10951,-17.8038 109.34771,-62.18992 z m 162.52287,3.30757 c -4.2076,0.0897 -8.3964,0.95918 -12.2183,2.62793 -10.3198,4.16017 -11.9594,19.98982 -3.4599,26.58255 8.8611,5.40581 20.7353,4.08806 28.8369,10.97461 1.5938,1.48274 0.3135,5.72448 -2.2544,7.33447 -7.2698,4.32464 -19.0042,2.60959 -20.2339,-7.02686 -3.882,-0.10578 -7.7778,-0.11742 -11.6718,-0.0351 1.0488,5.24127 1.2219,10.70486 6.0322,13.91309 8.174,5.67609 19.3764,5.55832 28.6113,2.70263 10.778,-3.25524 14.8266,-17.96947 7.6172,-26.23096 -8.0052,-6.88653 -18.3884,-5.10601 -27.4424,-9.95946 -3.2672,-2.09182 -2.5943,-7.47682 0.2388,-9.4629 4.1111,-2.63242 8.4809,-2.35162 12.8452,-0.6006 3.2912,1.3515 5.7508,2.81558 6.5391,6.74415 l 9.4116,0.13035 c -0.3134,-6.5457 -4.0508,-13.18687 -10.5249,-15.64305 -3.894,-1.45132 -8.1192,-2.14035 -12.3267,-2.0508 z m 127.1323,2.31743 c -1.6067,0.01 -3.0076,0.0693 -4.4692,0.0161 -0.024,3.1377 -8e-4,6.27533 -0.013,9.41303 3.8458,0.0119 7.6811,0.025 11.5269,-0.0337 -0.2532,-2.97322 0.3252,-6.75945 -2.7129,-8.59275 -1.3684,-0.63457 -2.8382,-0.7851 -4.3316,-0.8013 z m -26.3686,0.004 c -0.024,16.12342 -0.06,32.23551 0,48.34719 -0.084,3.29049 1.5555,8.01551 5.1123,7.9629 h 13.4355 c 0.012,-2.6559 -0.012,-5.28795 0,-7.94385 h -6.0703 c -0.9857,-0.0347 -0.9924,-0.18036 -0.9902,-1.71973 v -24.55225 c 5.6088,0 7.2831,-2.98854 7.2831,-8.45506 l -7.2831,-0.2007 v -6.9126 c 0.2133,-6.55883 -5.9433,-6.28095 -11.4873,-6.5259 z m -199.544,6.9507 c -2.4927,2.87715 -5.1262,5.78925 -7.9203,8.74072 l -0.04,0.0425 -0.044,0.038 c -11.28797,10.29357 -21.87957,19.20081 -31.77837,26.91507 4.2771,1.80306 14.1643,6.65319 13.8472,12.99609 -0.051,2.12292 -0.7078,4.173641 -1.8105,6.147951 6.8234,-5.053371 14.02627,-10.851811 21.62247,-17.522461 6.3566,-5.58197 11.9585,-11.08633 16.9117,-16.48535 -0.285,-8.93737 -5.0918,-15.69427 -10.7886,-20.87257 z m 166.6788,5.9766 c -5.5236,0.0343 -11.335,0.16005 -11.335,5.65717 v 24.6182 c 0,5.94885 -15.0132,5.92456 -15.0132,0 l -0.4834,-30.18312 h -11.7055 v 27.76905 c 0.3858,3.82422 1.2417,8.02436 4.1352,10.88965 8.5356,6.920621 22.2141,7.291281 30.4527,0.24317 3.0867,-2.64069 4.118,-7.11218 3.9492,-11.13282 -0.024,-9.28914 0.036,-18.57222 0,-27.8613 z m 54.7895,0 c -0.024,14.50164 -0.085,28.99097 -0.085,43.49265 3.8218,0.0235 7.6447,0.0235 11.4785,0 0.012,-11.75176 0,-23.50408 0.022,-35.25586 0.062,-8.05559 -1.6209,-8.14034 -11.4155,-8.23679 z m -28.4546,0.0322 c -5.259,0.0932 -10.5744,1.28085 -14.9311,4.22168 -5.3769,3.85461 -7.8674,10.49391 -7.8795,16.83987 v 22.37549 h 12.085 v -24.44265 c 0,-3.66032 1.146,-7.75973 13.0166,-7.43994 v -11.52832 c -0.746,-0.0294 -1.5397,-0.0381 -2.291,-0.0249 z m 46.0268,9.94193 c -0.7182,1.87638 -1.111,3.88503 -1.1821,5.8374 -0.094,9.22743 0.024,18.4656 0,27.70458 0.3922,0 0.7889,-7.5e-4 1.1821,-7.5e-4 z"
     id="path6-3-8-7-8-6-6"
     inkscape:connector-curvature="0" />
  <path
     style="fill:#ffebef;fill-opacity:1;stroke:none;stroke-width:0.99999994;stroke-opacity:1"
     d="m 286.16153,719.71302 c -11.6966,0.2427 -23.3466,4.4019 -32.1681,12.1641 -9.12,8.71995 -14.3512,20.96895 -15.5713,33.41894 l -0.9199,0.93157 c -5.3389,-15.42876 -9.6701,-27.82131 -14.959,-43.39155 -44.4672,-0.32586 -89.4039,-0.0461 -125.875501,-0.12891 v 58.63476 c -1.3258,-0.79117 -1.7603,-2.32657 -2.4755,-3.60502 -9.23,-18.84998 -20.4989,-36.57989 -30.649,-54.91988 l -27.5507,-0.0806 c -0.03,8.76999 0.019,17.52975 -0.041,26.29979 -2.4401,-4.26 -4.4598,-8.7998 -7.6597,-12.56984 -4.16,-5.33001 -9.8496,-9.25941 -15.9096,-12.1494 -4.0285999,-1.63536 -8.2571999,-2.83365 -12.56699992,-3.5742 v 22.29929 c 3.00300002,1.3845 5.66830002,3.4458 7.61730002,6.1743 5.2799999,7.13004 6.1197999,16.41024 5.8797999,24.99024 -0.36,7.83 -1.8004,16.32015 -7.5102999,22.16016 -0.8028,0.82974 -1.6733,1.56939 -2.5941,2.22804 H 33.632729 c 0.7176,-1.50384 1.431,-3.01764 2.1591,-4.51755 0.097,1.47246 0.1593,2.946 0.208,4.41936 v 0.0982 h 24.5522 v -37.19678 c 0.258,0.64613 0.5148,1.29555 0.7896,1.94828 5.9062,12.0699 12.7307,23.6538 19.5366,35.2485 h 40.341901 v -55.86765 c 7.4802,-0.0893 14.9701,-0.10035 22.4604,-0.0205 l 0.015,55.8882 h 130.8734 c -0.8637,-0.6216 -1.6847,-1.30815 -2.4477,-2.06692 -5.6302,-5.97 -7.8904,-14.33228 -8.0904,-22.3623 -0.4999,-9.61994 1.5803,-19.89878 8.0904,-27.2988 6.3399,-6.99997 17.2203,-8.69962 25.6803,-4.82962 4.3398,2.24999 7.3605,6.28852 9.2007,10.72852 8.1198,0.02 16.239,0.031 24.3588,-0.009 -1.5399,-9.45 -6.4005,-18.57989 -14.1006,-24.39989 -8.0799,-6.36998 -18.6293,-8.77965 -28.7592,-8.63963 -0.779,-0.0187 -1.5587,-0.0209 -2.3379,-0.004 z m 165.246,0.041 c -6.1052,-0.022 -12.2118,0.74505 -18.0469,2.58255 -7.6299,2.46 -14.9499,7.29045 -18.4599,14.73045 -3.36,5.81003 -3.5796,12.77978 -2.6397,19.25978 1.6101,8.28997 7.8096,14.97104 15.0996,18.85102 11.07,5.88 23.4909,8.30879 35.231,12.46875 2.32,0.65002 3.9502,2.48932 5.4301,4.29938 0.02,2.16 0.04,4.34002 0.07,6.51997 -0.03,0.0439 -0.063,0.0855 -0.094,0.12893 h 24.2988 c 0.749,-4.0452 0.7051,-8.26613 0.013,-12.27833 -1.6398,-8.58001 -8.2896,-15.64927 -16.3095,-18.77932 -10.68,-4.27995 -21.8502,-7.18995 -32.6001,-11.25 -3.4899,-1.32998 -7.3902,-4.02038 -7.3902,-8.15033 -0.3198,-5.02005 4.8804,-8.41995 9.4204,-8.64997 4.6301,-0.19995 9.6899,-0.7404 13.8398,1.82962 4.1601,2.30003 5.6109,7.011 6.7809,11.29103 7.8699,-0.17003 15.7506,-5.3e-4 23.6205,-0.0806 -0.08,-8.26005 -2.781,-16.821 -9.041,-22.48095 -6.0499,-6.26003 -14.7598,-8.77808 -23.1298,-10.01813 -2.025,-0.1725 -4.0587,-0.26655 -6.0938,-0.2739 z m -64.4869,2.95313 -27.87,0.0395 c -8.91,24.83001 -17.7598,49.67999 -26.7598,74.48001 -0.4701,-9.88005 -0.1304,-29.66017 -0.1304,-29.66017 l -44.3495,-0.22995 c 0,0 -0.189,12.80092 0.2109,19.19092 7.0701,-0.08 14.1501,-0.09 21.23,0 -1.1307,4.65158 -3.4645,9.1578 -7.289,12.06735 h 135.1815 c -2.1288,-3.102 -2.8188,-7.14495 -3.1641,-10.8384 -7.98,0.04 -15.9595,-0.0394 -23.9296,0.0806 -7.9998,-21.60999 -15.27,-43.47984 -23.13,-65.12985 z m -217.9687,19.94969 18.1597,0.0205 -17.9297,50.46825 z m 203.0801,6.52005 c 3.56,10.88002 7.2406,21.72997 10.5205,32.70997 -6.72,0.18998 -13.4392,0.13104 -20.1592,0.041 2.42,-11.11993 6.7988,-21.73092 9.6387,-32.7509 z m -164.4199,0.78949 c 3.6656,10.50645 6.8206,21.15788 9.8804,31.8501 l -20.0303,0.14063 z"
     id="path6-3-8-7-8-3-0-8-1-4"
     inkscape:connector-curvature="0" />
  <path
     style="fill:#ffebef;fill-opacity:1;stroke:none;stroke-width:0.99999994;stroke-opacity:1"
     d="m 917.70987,642.43666 c -22.6013,1.08052 -38.7585,4.5858 -57.4951,12.6519 -7.095,3.3264 -17.9658,9.51435 -20.603,15.59325 0.2281,0.50505 0.6933,1.51492 0.9214,2.02005 7.6181,2.3046 16.0741,-1.64124 22.6054,-4.9776 -0.065,-2.36243 1.1965,-4.36635 2.6221,-6.12593 15.7933,-10.05585 37.1284,-14.27677 53.2471,-6.51712 14.5181,8.49195 15.5167,21.58356 10.8691,34.97316 -9.2604,30.1457 -38.325,59.2838 -70.1924,79.3535 -17.6092,11.09001 -36.1043,19.39305 -52.7446,23.45655 -11.0823,2.70621 -21.3747,3.5616 -30.0513,1.9863 0.1296,1.15206 0.2809,2.42031 0.4454,3.74415 h 131.7129 c 12.7933,-10.63965 26.0427,-22.8672 37.8339,-35.77149 14.9831,-16.39755 27.5571,-33.90658 33.9595,-50.48878 0.06,-0.16229 0.1242,-0.32766 0.1831,-0.48921 0.032,-0.0829 0.061,-0.16479 0.092,-0.24758 15.6824,-43.466 -15.0423,-61.4705 -42.6768,-67.39888 -6.848,-1.21687 -13.7849,-1.78042 -20.7261,-1.76227 z m 95.10793,34.76661 c 5.0205,5.436 11.2758,14.62958 13.2525,28.06492 3.0491,20.72406 -4.0317,51.25168 -40.28183,93.32668 h 54.86573 c 6.3916,-12.58605 9.853,-23.70945 11.6148,-33.01027 2.5586,-13.50728 1.565,-23.07975 0.6709,-27.82028 -6.5985,-28.61443 -29.28,-51.14667 -40.1221,-60.56105 z m 231.9009,42.18163 c -8.7309,-0.0413 -17.4448,1.84335 -25.2276,5.8755 -9,4.61002 -15.7405,12.76192 -19.7504,21.94192 -0.27,-8.29005 -0.74,-16.5714 -0.5201,-24.86137 -11.4699,-0.24 -22.9403,0.0209 -34.4003,-0.13913 -6.684,23.35043 -12.5435,46.94376 -18.709,70.43841 l -18.29,-70.39888 -34.8003,0.0791 -0.024,76.27439 h 23.1138 l -0.1202,-51.8247 3.5611,15.9507 8.5312,35.874 h 36.1392 l 8.6982,-35.0142 3.8115,-13.88963 -0.621,17.01128 -0.083,31.89255 h 23.5429 c 0.023,-1.04198 0.059,-2.08305 0.1113,-3.1245 0.4865,1.05502 1.0049,2.09722 1.5556,3.1245 h 30.92 c -5.6696,-3.70005 -8.7366,-10.40303 -9.8467,-16.9248 -1.54,-9.98003 -1.4792,-20.7102 3.0308,-29.9502 3.11,-6.33 9.6106,-10.58864 16.6406,-11.07862 0.9375,-0.11872 1.8865,-0.1797 2.8403,-0.18307 3.5504,-0.0127 7.1474,0.7791 10.3331,2.34517 V 720.3502 c -3.4428,-0.61987 -6.941,-0.94875 -10.437,-0.96532 z m -265.33013,4.05765 c -7.1636,14.01022 -17.9191,28.14598 -30.1538,41.53558 -4.885,5.34632 -10.0154,10.5621 -15.2504,15.60504 19.0791,-2.73975 40.5078,-1.58229 61.3314,1.09716 14.54373,-19.43803 22.30953,-35.90548 25.80773,-49.65381 -13.8273,-4.89367 -27.62803,-7.76265 -41.73493,-8.58397 z m -76.9907,6.12742 c -41.6289,10.29285 -89.2313,23.01773 -119.0288,49.98045 -3.1082,3.35886 -6.6475,7.22895 -6.7778,11.9619 8.2236,1.66567 18.3995,0.9825 29.5913,-1.7505 16.1944,-3.95453 34.4348,-12.12129 51.7984,-23.05657 16.3977,-10.32713 31.9851,-23.13938 44.4169,-37.13528 z m 153.79253,31.81785 c -0.215,1.545 -0.4706,3.1401 -0.7837,4.79295 -1.7492,9.234 -5.1274,20.15475 -11.1943,32.4141 h 16.7563 c 0.1293,-0.65904 0.2687,-1.32594 0.3809,-1.97025 0.8437,-4.84434 1.2061,-9.24024 1.2876,-13.16895 -1.1534,-7.611 -2.5547,-15.432 -6.4468,-22.06785 z"
     id="path6-3-8-7-8-2-2-1"
     inkscape:connector-curvature="0" />
</svg>
